<svg width="1245" height="490" viewBox="0 0 1245 490" fill="none" xmlns="http://www.w3.org/2000/svg">
<path d="M240.155 69.5559L112.13 130.95C105.693 134.025 101.033 139.885 99.3997 146.851L67.838 284.675C66.2527 291.641 67.934 298.991 72.4017 304.564L160.938 415.15C165.406 420.723 172.131 423.941 179.241 423.941H321.389C328.499 423.941 335.224 420.723 339.692 415.15L428.228 304.564C432.696 298.991 434.377 291.641 432.792 284.675L401.23 146.851C399.645 139.885 394.937 134.025 388.5 130.95L260.427 69.5559C254.038 66.4814 246.544 66.4814 240.155 69.5559Z" fill="url(#paint0_linear_2347_62807)"/>
<path d="M240.156 100.445L136.391 150.213C129.954 153.288 125.294 159.148 123.661 166.114L98.0557 277.805C96.4704 284.771 98.1518 292.121 102.619 297.694L174.39 387.335C178.858 392.907 185.583 396.126 192.693 396.126H307.891C315.001 396.126 321.726 392.907 326.194 387.335L397.965 297.694C402.432 292.121 404.114 284.771 402.528 277.805L376.923 166.114C375.338 159.148 370.63 153.288 364.193 150.213L260.428 100.445C254.039 97.37 246.545 97.37 240.156 100.445Z" fill="white"/>
<path d="M240.154 119.179L151.089 161.934C144.652 165.008 139.992 170.869 138.359 177.835L116.405 273.721C114.82 280.687 116.501 288.037 120.969 293.609L182.555 370.52C187.023 376.093 193.748 379.311 200.858 379.311H299.771C306.88 379.311 313.606 376.093 318.073 370.52L379.66 293.609C384.127 288.037 385.809 280.687 384.223 273.721L362.27 177.835C360.684 170.869 355.976 165.008 349.539 161.934L260.474 119.179C254.085 116.104 246.591 116.104 240.202 119.179H240.154Z" fill="#00493C"/>
<path d="M116.311 273.965L129.041 218.432C217.097 219.296 217.578 308.697 306.498 308.697C343.585 308.697 365.298 293.085 384.37 274.878C385.715 282.036 383.938 289.482 379.326 295.198L318.652 371.004C313.848 377.009 306.594 380.468 298.908 380.468H201.581C193.894 380.468 186.641 376.961 181.837 371.004L121.163 295.198C116.359 289.193 114.582 281.411 116.311 273.917V273.965Z" fill="#7EEBB9"/>
<path d="M116.599 274.106L121.979 250.711C130.242 248.982 139.465 247.877 150.178 247.877C243.134 247.877 243.134 338.047 336.042 338.047C339.212 338.047 342.287 337.95 345.265 337.71L318.651 370.953C313.848 376.91 306.594 380.417 298.955 380.417H201.772C194.086 380.417 186.832 376.958 182.076 370.953L121.499 295.292C116.695 289.335 114.917 281.504 116.647 274.058L116.599 274.106Z" fill="#219384"/>
<path d="M116.309 273.958L122.507 246.96C134.276 244.558 147.775 243.597 164.06 244.798C257.497 251.86 256.92 330.548 337.674 347.266L318.699 370.997C313.895 377.002 306.641 380.461 298.955 380.461H201.627C193.941 380.461 186.687 376.954 181.883 370.997L121.209 295.191C116.406 289.187 114.628 281.404 116.357 273.91L116.309 273.958Z" fill="#008575"/>
<path d="M116.311 273.963L119.482 260.176C127.937 259.311 137.208 259.119 147.729 259.888C242.606 267.046 240.589 347.992 325.041 363.076L318.652 371.051C313.848 377.055 306.594 380.514 298.908 380.514H201.581C193.894 380.514 186.641 377.007 181.837 371.051L121.163 295.245C116.359 289.24 114.582 281.457 116.311 273.963Z" fill="#006557"/>
<path d="M227.473 313.267C220.123 313.267 212.245 312.883 203.934 312.066C189.138 269.552 189.042 237.509 203.646 216.853C220.171 193.505 252.646 188.605 276.953 188.605C287.186 188.605 295.641 189.47 300.348 190.095C305.152 202.585 322.398 252.882 301.069 284.636C288.291 303.659 263.55 313.267 227.473 313.267Z" fill="#15E39B"/>
<path d="M276.954 194.464C284.688 194.464 291.366 194.993 296.026 195.473C301.694 211.23 314.376 254.177 296.122 281.319C284.496 298.565 261.389 307.308 227.425 307.308C221.421 307.308 214.983 307.02 208.258 306.492C195.335 267.676 195.383 238.66 208.45 220.213C223.486 198.932 253.991 194.464 276.906 194.464M276.906 182.646C232.71 182.646 156.856 198.644 199.275 316.676L198.65 317.445C198.986 317.445 199.226 317.445 199.563 317.541C199.659 317.829 199.755 318.117 199.851 318.405L200.475 317.637C210.227 318.694 219.211 319.174 227.425 319.174C355.882 319.174 311.062 200.613 304.865 185.577C304.865 185.577 304.865 185.481 304.528 184.76L303.664 184.616C299.821 184.04 289.684 182.695 276.906 182.695V182.646Z" fill="white"/>
<path d="M168.097 361.452L158.777 354.15L232.229 265.854L227.137 239.961L238.763 237.703L244.864 268.929L168.097 361.452Z" fill="white"/>
<path d="M240.685 272.868L236.41 261.915L276.186 246.494L280.462 257.495L240.685 272.868Z" fill="white"/>
<path d="M562.839 198.4H541.342L519.744 223.906H518.742V176H500V265.599H518.742V244.251L523.803 238.488L542.194 265.599H564.092L537.784 227.514L562.839 198.4Z" fill="#1C292B"/>
<path d="M615.257 236.987C615.257 239.994 614.706 242.499 613.453 244.554C612.25 246.609 610.647 248.112 608.692 249.164C606.738 250.216 604.633 250.718 602.378 250.718C598.82 250.718 596.014 249.565 593.91 247.26C591.805 244.955 590.753 241.798 590.702 237.839V198.352H571.961V241.146C571.961 246.408 572.963 250.918 574.867 254.676C576.772 258.435 579.478 261.341 582.885 263.396C586.293 265.45 590.302 266.452 594.812 266.452C599.873 266.452 604.182 265.25 607.69 262.844C611.198 260.439 613.754 257.282 615.257 253.323H615.958V265.55H633.948V198.352H615.207V236.937L615.257 236.987Z" fill="#1C292B"/>
<path d="M701.396 201.356C697.237 198.801 692.676 197.548 687.766 197.548C684.007 197.548 680.85 198.199 678.295 199.452C675.739 200.705 673.734 202.308 672.131 204.162C670.577 206.067 669.375 207.871 668.573 209.675H668.022V176H649.28V265.649H667.721V254.875H668.573C669.425 256.729 670.678 258.583 672.281 260.387C673.885 262.191 675.939 263.744 678.495 264.947C681.051 266.15 684.107 266.751 687.766 266.751C692.877 266.751 697.537 265.448 701.646 262.792C705.806 260.136 709.063 256.278 711.468 251.116C713.873 245.955 715.076 239.641 715.076 232.124C715.076 224.608 713.823 217.993 711.318 212.882C708.812 207.77 705.505 203.912 701.346 201.356H701.396ZM694.33 242.347C693.228 245.354 691.624 247.659 689.519 249.363C687.415 251.066 684.859 251.868 681.802 251.868C678.746 251.868 676.24 251.066 674.135 249.413C672.031 247.759 670.427 245.454 669.325 242.497C668.222 239.541 667.671 236.033 667.671 232.024C667.671 228.015 668.222 224.558 669.325 221.601C670.427 218.645 672.031 216.389 674.135 214.786C676.24 213.182 678.796 212.381 681.852 212.381C684.909 212.381 687.515 213.233 689.62 214.886C691.724 216.54 693.328 218.845 694.43 221.802C695.533 224.758 696.034 228.166 696.034 232.024C696.034 235.883 695.483 239.39 694.38 242.397L694.33 242.347Z" fill="#1C292B"/>
<path d="M780.069 206.021C777.212 203.165 773.805 201.06 769.946 199.657C766.088 198.254 761.929 197.553 757.469 197.553C750.854 197.553 745.091 199.006 740.18 201.912C735.269 204.819 731.461 208.878 728.805 214.139C726.099 219.351 724.746 225.414 724.746 232.33C724.746 239.245 726.099 245.559 728.805 250.721C731.511 255.882 735.32 259.891 740.331 262.697C745.342 265.503 751.305 266.906 758.22 266.906C763.783 266.906 768.694 266.055 772.953 264.351C777.212 262.647 780.72 260.242 783.426 257.185C786.132 254.128 787.936 250.52 788.788 246.361L771.5 245.208C770.848 246.912 769.896 248.315 768.693 249.518C767.491 250.721 765.988 251.572 764.284 252.124C762.58 252.675 760.626 253.026 758.571 253.026C755.414 253.026 752.708 252.374 750.453 251.071C748.148 249.768 746.394 247.914 745.141 245.459C743.889 243.003 743.287 240.147 743.287 236.84H789.239V231.728C789.239 226.016 788.437 221.005 786.834 216.745C785.23 212.486 782.975 208.928 780.069 206.072V206.021ZM743.337 225.214C743.438 222.809 744.039 220.604 745.141 218.599C746.394 216.445 748.098 214.691 750.253 213.388C752.458 212.085 754.963 211.433 757.769 211.433C760.576 211.433 762.881 212.035 764.935 213.187C766.99 214.39 768.593 215.994 769.796 218.048C770.948 220.103 771.55 222.508 771.55 225.164H743.287L743.337 225.214Z" fill="#1C292B"/>
<path d="M885.853 209.68H885.151C884.299 207.876 883.097 206.022 881.543 204.167C879.99 202.313 877.935 200.71 875.38 199.457C872.824 198.204 869.667 197.553 865.908 197.553C860.947 197.553 856.387 198.805 852.278 201.361C848.169 203.917 844.812 207.725 842.306 212.837C839.801 217.948 838.548 224.312 838.548 231.929C838.548 239.546 839.751 245.509 842.206 250.37C844.661 255.231 847.969 258.839 852.078 261.194C856.237 263.549 860.847 264.702 865.908 264.702C869.466 264.702 872.573 264.2 875.129 263.148C877.735 262.096 879.789 260.743 881.443 259.089C883.097 257.435 884.299 255.682 885.151 253.777H885.953V266.105C885.953 270.715 884.65 274.022 881.994 275.977C879.338 277.931 875.981 278.933 871.922 278.933C869.216 278.933 866.911 278.582 865.006 277.881C863.102 277.179 861.599 276.227 860.446 275.075C859.294 273.922 858.442 272.669 857.941 271.316L840.653 273.621C841.404 277.129 843.058 280.336 845.614 283.142C848.169 285.949 851.577 288.204 855.936 289.857C860.296 291.511 865.457 292.313 871.521 292.313C877.985 292.313 883.648 291.361 888.609 289.406C893.57 287.452 897.478 284.596 900.285 280.737C903.091 276.879 904.494 272.118 904.494 266.355V198.455H885.903V209.73L885.853 209.68ZM884.349 241.901C883.197 244.707 881.593 246.862 879.539 248.365C877.434 249.869 874.878 250.62 871.872 250.62C868.865 250.62 866.209 249.869 864.105 248.315C862 246.812 860.396 244.607 859.294 241.801C858.191 238.995 857.64 235.637 857.64 231.779C857.64 227.92 858.191 224.563 859.244 221.656C860.346 218.75 861.9 216.445 864.054 214.791C866.209 213.137 868.765 212.335 871.822 212.335C874.878 212.335 877.384 213.137 879.489 214.741C881.593 216.344 883.197 218.599 884.299 221.506C885.402 224.412 885.953 227.82 885.953 231.779C885.953 235.737 885.402 239.095 884.249 241.901H884.349Z" fill="#1C292B"/>
<path d="M954.459 197.396C950.7 197.396 947.343 198.448 944.436 200.603C941.53 202.758 939.475 205.915 938.223 210.074H937.521V198.348H919.381V265.547H938.122V227.513C938.122 224.756 938.724 222.351 939.977 220.246C941.229 218.142 942.933 216.488 945.088 215.336C947.243 214.133 949.698 213.582 952.454 213.582C953.757 213.582 955.16 213.682 956.714 213.882C958.267 214.083 959.47 214.333 960.372 214.584V198.047C959.57 197.847 958.618 197.696 957.515 197.546C956.413 197.446 955.411 197.346 954.509 197.346L954.459 197.396Z" fill="#1C292B"/>
<path d="M1019.4 206.021C1016.49 203.165 1013.14 201.06 1009.28 199.657C1005.42 198.254 1001.26 197.553 996.8 197.553C990.185 197.553 984.423 199.006 979.512 201.912C974.601 204.819 970.792 208.878 968.086 214.139C965.38 219.401 964.027 225.414 964.027 232.33C964.027 239.245 965.38 245.559 968.086 250.721C970.792 255.882 974.651 259.891 979.612 262.697C984.573 265.503 990.586 266.906 997.502 266.906C1003.06 266.906 1007.97 266.055 1012.23 264.351C1016.49 262.647 1020 260.242 1022.71 257.185C1025.41 254.128 1027.22 250.52 1028.07 246.361L1010.73 245.208C1010.08 246.912 1009.13 248.315 1007.92 249.518C1006.67 250.67 1005.22 251.572 1003.46 252.124C1001.71 252.675 999.807 253.026 997.752 253.026C994.595 253.026 991.889 252.374 989.634 251.071C987.379 249.768 985.575 247.914 984.322 245.459C983.07 243.003 982.468 240.147 982.468 236.84H1028.42V231.728C1028.42 226.016 1027.62 221.005 1026.01 216.745C1024.41 212.486 1022.16 208.928 1019.3 206.072L1019.4 206.021ZM982.669 225.214C982.769 222.809 983.37 220.604 984.473 218.599C985.675 216.445 987.429 214.691 989.584 213.388C991.789 212.085 994.294 211.433 997.101 211.433C999.907 211.433 1002.21 212.035 1004.27 213.187C1006.32 214.39 1007.92 215.994 1009.13 218.048C1010.28 220.103 1010.88 222.508 1010.88 225.164H982.619L982.669 225.214Z" fill="#1C292B"/>
<path d="M1093.31 206.021C1090.41 203.165 1087.05 201.06 1083.19 199.657C1079.33 198.254 1075.17 197.553 1070.71 197.553C1064.1 197.553 1058.34 199.006 1053.43 201.912C1048.51 204.819 1044.71 208.878 1042 214.139C1039.29 219.351 1037.94 225.414 1037.94 232.33C1037.94 239.245 1039.29 245.559 1042 250.721C1044.71 255.882 1048.56 259.891 1053.53 262.697C1058.49 265.503 1064.5 266.906 1071.42 266.906C1076.98 266.906 1081.89 266.055 1086.15 264.351C1090.41 262.647 1093.92 260.242 1096.62 257.185C1099.33 254.128 1101.13 250.52 1101.98 246.361L1084.64 245.208C1083.99 246.912 1083.04 248.315 1081.84 249.518C1080.59 250.67 1079.13 251.572 1077.38 252.124C1075.62 252.675 1073.72 253.026 1071.67 253.026C1068.51 253.026 1065.8 252.374 1063.55 251.071C1061.29 249.768 1059.49 247.914 1058.24 245.459C1056.98 243.003 1056.38 240.147 1056.38 236.84H1102.33V231.728C1102.33 226.016 1101.53 221.005 1099.93 216.745C1098.33 212.486 1096.07 208.928 1093.21 206.072L1093.31 206.021ZM1056.58 225.214C1056.68 222.809 1057.28 220.604 1058.39 218.599C1059.59 216.445 1061.34 214.691 1063.5 213.388C1065.7 212.085 1068.21 211.433 1071.01 211.433C1073.82 211.433 1076.13 212.035 1078.18 213.187C1080.24 214.39 1081.84 215.994 1083.04 218.048C1084.19 220.103 1084.8 222.508 1084.8 225.164H1056.53L1056.58 225.214Z" fill="#1C292B"/>
<path d="M1174.04 209.329C1172.09 205.57 1169.38 202.614 1165.93 200.609C1162.42 198.555 1158.36 197.553 1153.65 197.553C1148.64 197.553 1144.38 198.705 1140.87 201.01C1137.36 203.315 1134.86 206.422 1133.35 210.281H1132.55V198.405H1114.71V265.604H1133.45V226.717C1133.45 223.811 1134.01 221.355 1135.11 219.301C1136.21 217.246 1137.66 215.693 1139.62 214.59C1141.52 213.488 1143.78 212.987 1146.28 212.987C1150.04 212.987 1153 214.139 1155.1 216.445C1157.26 218.75 1158.31 221.957 1158.26 226.116V265.604H1177V222.809C1177 217.597 1176.05 213.087 1174.09 209.329H1174.04Z" fill="#1C292B"/>
<path d="M828.928 225.209H798.812V236.785H828.928V225.209Z" fill="#1C292B"/>
<path d="M512.879 318.973L500 353.8H504.46L507.968 343.928H522.099L525.607 353.8H530.017L517.188 318.973H512.828H512.879ZM509.321 340.17L514.883 324.485H515.184L520.796 340.17H509.271H509.321Z" fill="#859C9F"/>
<path d="M567.497 320.476C565.743 319.474 563.488 318.973 560.782 318.973H548.956V353.8H553.165V341.072H560.832C563.538 341.072 565.793 340.571 567.547 339.568C569.301 338.566 570.554 337.213 571.406 335.61C572.258 333.906 572.659 332.052 572.659 329.997C572.659 327.943 572.258 326.088 571.406 324.435C570.554 322.731 569.251 321.428 567.497 320.476ZM567.748 333.755C567.247 334.858 566.395 335.71 565.242 336.361C564.09 337.013 562.586 337.363 560.682 337.363H553.165V322.731H560.632C562.486 322.731 564.039 323.082 565.192 323.683C566.345 324.335 567.196 325.186 567.748 326.289C568.249 327.341 568.499 328.644 568.499 330.047C568.499 331.45 568.249 332.653 567.748 333.806V333.755Z" fill="#859C9F"/>
<path d="M589.948 327.283C588.344 327.283 586.941 327.634 585.739 328.486C584.486 329.288 583.584 330.29 583.133 331.593H582.832V327.634H578.974V353.742H582.983V337.255C582.983 336.053 583.283 335 583.885 334.098C584.436 333.146 585.238 332.445 586.24 331.944C587.242 331.392 588.344 331.142 589.597 331.142C590.148 331.142 590.7 331.142 591.151 331.242C591.602 331.342 591.952 331.392 592.103 331.392V327.333C592.103 327.333 591.552 327.333 591.05 327.333H589.948V327.283Z" fill="#859C9F"/>
<path d="M612.901 329.046C611.097 327.943 609.042 327.342 606.637 327.342C604.232 327.342 602.227 327.893 600.423 329.046C598.619 330.148 597.216 331.752 596.264 333.756C595.262 335.811 594.761 338.166 594.761 340.922C594.761 343.678 595.262 345.983 596.264 347.988C597.266 349.992 598.669 351.596 600.423 352.698C602.227 353.8 604.282 354.402 606.637 354.402C608.992 354.402 611.097 353.851 612.901 352.698C614.705 351.596 616.108 349.992 617.06 347.988C618.062 345.983 618.563 343.578 618.563 340.922C618.563 338.266 618.062 335.811 617.06 333.756C616.058 331.752 614.655 330.148 612.901 329.046ZM613.703 345.783C613.152 347.286 612.3 348.439 611.147 349.391C609.995 350.343 608.541 350.794 606.687 350.794C604.833 350.794 603.43 350.343 602.277 349.391C601.125 348.439 600.273 347.286 599.672 345.783C599.12 344.279 598.82 342.676 598.82 340.922C598.82 339.168 599.12 337.564 599.672 336.011C600.223 334.508 601.075 333.305 602.277 332.353C603.43 331.401 604.883 330.95 606.687 330.95C608.491 330.95 609.995 331.401 611.147 332.353C612.3 333.305 613.152 334.508 613.703 336.011C614.254 337.564 614.555 339.118 614.555 340.922C614.555 342.726 614.254 344.279 613.703 345.783Z" fill="#859C9F"/>
<path d="M624.728 355.697C624.728 357 624.377 358.052 623.826 358.754C623.274 359.505 622.372 359.806 621.17 359.806H620.418V363.564H621.22C622.924 363.564 624.327 363.264 625.429 362.612C626.532 361.961 627.333 361.009 627.935 359.856C628.436 358.704 628.736 357.301 628.736 355.697V327.635H624.728V355.697Z" fill="#859C9F"/>
<path d="M626.681 317.916C625.879 317.916 625.227 318.217 624.676 318.718C624.125 319.219 623.824 319.87 623.824 320.622C623.824 321.374 624.125 322.025 624.676 322.526C625.227 323.077 625.879 323.328 626.681 323.328C627.432 323.328 628.134 323.077 628.685 322.526C629.236 322.025 629.537 321.374 629.537 320.622C629.537 319.87 629.236 319.219 628.685 318.718C628.134 318.217 627.432 317.916 626.681 317.916Z" fill="#859C9F"/>
<path d="M654.392 330.248C653.239 329.196 652.087 328.494 650.734 328.043C649.431 327.592 648.078 327.342 646.675 327.342C644.32 327.342 642.265 327.893 640.461 329.096C638.657 330.248 637.304 331.852 636.352 333.906C635.35 335.911 634.849 338.316 634.849 340.972C634.849 343.628 635.35 345.983 636.352 347.988C637.354 349.992 638.757 351.596 640.561 352.698C642.365 353.8 644.57 354.402 647.076 354.402C648.88 354.402 650.433 354.101 651.886 353.55C653.289 352.999 654.492 352.247 655.444 351.245C656.446 350.192 657.148 349.09 657.499 347.787L653.59 346.685C653.239 347.637 652.788 348.388 652.137 348.99C651.536 349.591 650.784 350.042 649.932 350.343C649.08 350.643 648.078 350.794 647.076 350.794C645.422 350.794 644.019 350.443 642.766 349.741C641.564 349.04 640.611 347.988 639.91 346.635C639.309 345.432 639.008 343.929 638.958 342.175H657.95V340.421C657.95 338.015 657.599 335.911 656.948 334.307C656.296 332.603 655.444 331.301 654.392 330.298V330.248ZM638.958 338.667C639.058 337.464 639.309 336.312 639.81 335.209C640.461 333.956 641.363 332.904 642.466 332.152C643.618 331.351 645.071 330.95 646.625 330.95C648.078 330.95 649.331 331.301 650.433 332.002C651.536 332.654 652.337 333.606 652.939 334.708C653.49 335.861 653.841 337.164 653.841 338.667H638.958Z" fill="#859C9F"/>
<path d="M670.63 332.144C671.782 331.342 673.185 330.941 674.689 330.941C676.493 330.941 677.896 331.392 678.948 332.344C680.001 333.297 680.702 334.299 680.953 335.501H685.012C684.761 333.848 684.21 332.395 683.258 331.192C682.306 329.989 681.103 329.037 679.6 328.336C678.146 327.634 676.443 327.283 674.639 327.283C672.283 327.283 670.229 327.834 668.425 329.037C666.621 330.19 665.268 331.793 664.316 333.798C663.314 335.852 662.812 338.207 662.812 340.863C662.812 343.519 663.314 345.774 664.266 347.779C665.218 349.833 666.571 351.437 668.325 352.589C670.129 353.692 672.233 354.343 674.639 354.343C676.593 354.343 678.297 353.992 679.75 353.291C681.203 352.539 682.356 351.537 683.258 350.334C684.16 349.132 684.711 347.728 684.962 346.175H680.903C680.652 347.127 680.251 347.929 679.65 348.63C679.099 349.332 678.347 349.833 677.495 350.234C676.643 350.585 675.691 350.785 674.639 350.785C673.085 350.785 671.682 350.384 670.53 349.532C669.377 348.681 668.425 347.528 667.824 346.025C667.172 344.521 666.821 342.818 666.821 340.813C666.821 338.809 667.172 337.105 667.824 335.602C668.475 334.148 669.427 333.046 670.58 332.194L670.63 332.144Z" fill="#859C9F"/>
<path d="M701.298 350.184C700.997 350.184 700.646 350.184 700.195 350.184C699.644 350.184 699.093 350.083 698.541 349.883C697.99 349.683 697.539 349.332 697.239 348.781C696.938 348.229 696.737 347.377 696.737 346.275V331.041H702.3V327.634H696.737V321.42H692.679V327.634H688.72V331.041H692.679V347.327C692.679 348.881 693.079 350.134 693.781 351.136C694.482 352.138 695.384 352.89 696.487 353.391C697.589 353.842 698.642 354.092 699.794 354.092C700.546 354.092 701.147 354.092 701.648 353.942C702.149 353.842 702.55 353.691 702.801 353.591L701.949 349.983C701.949 349.983 701.598 350.083 701.298 350.134V350.184Z" fill="#859C9F"/>
<path d="M740.182 328.996C738.478 327.943 736.574 327.342 734.369 327.342C732.615 327.342 731.312 327.643 730.31 328.194C729.308 328.745 728.556 329.396 728.055 330.098C727.504 330.8 727.103 331.351 726.802 331.852H726.452V319.023H722.393V353.851H726.301V349.842H726.752C727.103 350.293 727.504 350.894 728.005 351.646C728.556 352.347 729.308 352.999 730.36 353.55C731.413 354.101 732.715 354.402 734.419 354.402C736.624 354.402 738.528 353.851 740.182 352.698C741.886 351.646 743.189 350.042 744.141 348.038C745.093 346.033 745.544 343.578 745.544 340.822C745.544 338.066 745.093 335.71 744.141 333.656C743.189 331.651 741.886 330.098 740.182 328.996ZM740.633 345.833C740.082 347.336 739.23 348.539 738.077 349.441C736.925 350.343 735.472 350.794 733.868 350.794C732.264 350.794 730.861 350.393 729.759 349.491C728.656 348.639 727.805 347.487 727.203 345.983C726.652 344.48 726.351 342.776 726.351 340.772C726.351 338.767 726.652 337.063 727.203 335.61C727.754 334.157 728.606 333.004 729.759 332.203C730.861 331.351 732.264 330.95 733.868 330.95C735.472 330.95 736.975 331.401 738.077 332.253C739.18 333.155 740.032 334.307 740.633 335.761C741.184 337.264 741.485 338.867 741.485 340.772C741.485 342.676 741.184 344.33 740.633 345.833Z" fill="#859C9F"/>
<path d="M760.577 348.53H760.276L753.06 327.684H748.7L758.372 353.942L757.62 355.996C757.169 357.299 756.618 358.251 756.016 358.853C755.465 359.454 754.764 359.805 754.012 359.855C753.26 359.955 752.408 359.855 751.456 359.604L750.404 363.112C750.404 363.112 751.005 363.363 751.506 363.463C752.008 363.563 752.609 363.613 753.31 363.613C754.513 363.613 755.616 363.413 756.618 363.012C757.62 362.561 758.472 361.909 759.224 361.007C759.925 360.105 760.577 359.003 761.028 357.65L772.152 327.734H767.792L760.577 348.58V348.53Z" fill="#859C9F"/>
<path d="M811.49 321.077C809.035 319.674 806.129 318.973 802.771 318.973H791.496V353.8H802.27C805.828 353.8 808.835 353.098 811.34 351.695C813.846 350.292 815.7 348.288 816.953 345.682C818.255 343.076 818.907 339.969 818.907 336.311C818.907 332.653 818.255 329.646 817.003 326.99C815.7 324.435 813.846 322.48 811.49 321.077ZM813.445 343.627C812.493 345.682 811.09 347.285 809.185 348.338C807.331 349.44 804.926 350.041 802.019 350.041H795.756V322.681H802.521C805.277 322.681 807.532 323.232 809.386 324.335C811.24 325.437 812.643 326.99 813.495 329.045C814.447 331.049 814.898 333.505 814.898 336.311C814.898 339.117 814.447 341.573 813.495 343.627H813.445Z" fill="#859C9F"/>
<path d="M841.658 328.895C840.606 328.244 839.604 327.843 838.451 327.693C837.349 327.442 836.397 327.342 835.545 327.342C834.242 327.342 832.939 327.542 831.536 327.893C830.183 328.244 828.93 328.895 827.778 329.747C826.625 330.649 825.723 331.852 825.022 333.455L828.88 334.808C829.281 333.856 830.083 333.004 831.185 332.152C832.288 331.301 833.791 330.9 835.695 330.9C837.599 330.9 838.952 331.351 839.854 332.303C840.756 333.255 841.207 334.508 841.207 336.161V336.312C841.207 336.963 840.957 337.414 840.506 337.665C840.105 337.965 839.353 338.116 838.351 338.216C837.349 338.316 836.046 338.517 834.442 338.667C833.24 338.817 831.987 339.018 830.834 339.318C829.632 339.569 828.529 339.97 827.527 340.471C826.525 341.022 825.723 341.724 825.122 342.676C824.571 343.628 824.22 344.831 824.22 346.334C824.22 348.088 824.621 349.491 825.422 350.694C826.224 351.896 827.276 352.798 828.68 353.45C829.982 354.051 831.536 354.402 833.19 354.402C834.693 354.402 835.996 354.151 837.048 353.75C838.151 353.299 838.952 352.698 839.604 352.047C840.205 351.395 840.706 350.794 840.957 350.243H841.157V353.8H845.216V336.612C845.216 334.558 844.865 332.854 844.164 331.651C843.512 330.399 842.61 329.497 841.608 328.895H841.658ZM841.257 344.38C841.257 345.432 840.957 346.484 840.406 347.486C839.854 348.489 839.003 349.29 837.9 349.892C836.798 350.493 835.445 350.844 833.841 350.844C832.238 350.844 830.935 350.493 829.832 349.792C828.78 349.09 828.279 348.038 828.279 346.685C828.279 345.632 828.579 344.881 829.131 344.229C829.682 343.628 830.383 343.177 831.285 342.876C832.238 342.576 833.139 342.375 834.242 342.225C834.643 342.225 835.244 342.125 835.946 342.024C836.647 341.924 837.349 341.824 838.101 341.674C838.852 341.573 839.504 341.423 840.055 341.273C840.656 341.122 841.007 340.922 841.157 340.721V344.43L841.257 344.38Z" fill="#859C9F"/>
<path d="M861.498 348.53H861.198L853.982 327.684H849.622L859.294 353.791H863.403L873.074 327.684H868.714L861.498 348.53Z" fill="#859C9F"/>
<path d="M882.445 327.684H878.437V353.791H882.445V327.684Z" fill="#859C9F"/>
<path d="M880.441 317.916C879.64 317.916 878.988 318.217 878.437 318.718C877.886 319.219 877.585 319.87 877.585 320.622C877.585 321.374 877.886 322.025 878.437 322.526C878.988 323.077 879.64 323.328 880.441 323.328C881.243 323.328 881.895 323.077 882.446 322.526C882.997 322.025 883.298 321.374 883.298 320.622C883.298 319.87 882.997 319.219 882.446 318.718C881.895 318.217 881.243 317.916 880.441 317.916Z" fill="#859C9F"/>
<path d="M907.705 331.852H907.304C907.004 331.401 906.603 330.8 906.102 330.098C905.601 329.396 904.799 328.745 903.797 328.194C902.794 327.643 901.441 327.342 899.738 327.342C897.533 327.342 895.578 327.893 893.925 328.996C892.221 330.098 890.918 331.651 889.966 333.656C888.964 335.71 888.513 338.116 888.513 340.822C888.513 343.528 888.964 346.033 889.966 348.038C890.918 350.042 892.221 351.646 893.875 352.698C895.578 353.801 897.483 354.402 899.637 354.402C901.341 354.402 902.694 354.101 903.696 353.55C904.699 352.999 905.5 352.347 906.001 351.646C906.553 350.894 907.004 350.293 907.254 349.842H907.755V353.851H911.614V319.023H907.605V331.852H907.705ZM906.903 345.983C906.302 347.487 905.45 348.639 904.348 349.491C903.245 350.393 901.892 350.794 900.289 350.794C898.685 350.794 897.182 350.343 896.079 349.441C894.977 348.539 894.125 347.336 893.524 345.833C892.922 344.33 892.622 342.626 892.622 340.772C892.622 338.918 892.922 337.264 893.474 335.761C894.025 334.307 894.877 333.155 896.029 332.253C897.132 331.401 898.585 330.95 900.289 330.95C901.993 330.95 903.295 331.351 904.398 332.203C905.5 333.004 906.352 334.157 906.954 335.61C907.505 337.063 907.805 338.767 907.805 340.772C907.805 342.776 907.505 344.48 906.954 345.983H906.903Z" fill="#859C9F"/>
<path d="M937.922 330.248C936.82 329.196 935.617 328.494 934.264 328.043C932.961 327.592 931.608 327.342 930.205 327.342C927.85 327.342 925.795 327.893 923.991 329.096C922.187 330.248 920.834 331.852 919.882 333.906C918.88 335.911 918.379 338.316 918.379 340.972C918.379 343.628 918.88 345.983 919.882 347.988C920.884 349.992 922.288 351.596 924.092 352.698C925.896 353.8 928.1 354.402 930.606 354.402C932.41 354.402 933.963 354.101 935.417 353.55C936.82 352.999 938.022 352.247 938.975 351.245C939.977 350.192 940.678 349.09 941.029 347.787L937.12 346.685C936.77 347.637 936.319 348.388 935.667 348.99C935.066 349.591 934.314 350.042 933.462 350.343C932.61 350.643 931.658 350.794 930.606 350.794C928.952 350.794 927.549 350.443 926.296 349.741C925.094 349.04 924.142 347.988 923.44 346.635C922.839 345.432 922.538 343.929 922.488 342.175H941.48V340.421C941.48 338.015 941.129 335.911 940.478 334.307C939.826 332.603 938.975 331.301 937.922 330.298V330.248ZM922.488 338.667C922.588 337.464 922.839 336.312 923.34 335.209C923.991 333.956 924.893 332.904 925.996 332.152C927.148 331.351 928.602 330.95 930.155 330.95C931.608 330.95 932.861 331.301 933.963 332.002C935.066 332.654 935.868 333.606 936.469 334.708C937.02 335.861 937.371 337.164 937.371 338.667H922.488Z" fill="#859C9F"/>
<path d="M982.168 336.963C981.066 336.261 980.014 335.91 978.911 335.86V335.509C979.963 335.209 980.815 334.808 981.717 334.257C982.569 333.705 983.271 332.904 983.772 331.901C984.273 330.949 984.574 329.696 984.574 328.193C984.574 326.489 984.173 324.986 983.421 323.583C982.669 322.18 981.517 321.077 979.913 320.225C978.31 319.374 976.305 318.973 973.9 318.973H961.673V353.8H974.301C977.057 353.8 979.312 353.399 981.016 352.597C982.77 351.745 984.022 350.693 984.824 349.29C985.626 347.887 985.977 346.333 985.977 344.579C985.977 342.826 985.626 341.222 984.874 339.969C984.123 338.666 983.221 337.714 982.168 337.013V336.963ZM965.882 322.731H973.9C976.205 322.731 977.909 323.282 978.961 324.385C980.014 325.487 980.565 326.74 980.565 328.243C980.565 329.446 980.264 330.548 979.663 331.4C979.061 332.352 978.21 333.054 977.157 333.555C976.105 334.006 975.002 334.307 973.75 334.307H965.882V322.731ZM980.214 348.488C979.061 349.54 977.057 350.092 974.301 350.092H965.882V337.965H974.501C976.005 337.965 977.308 338.316 978.46 338.917C979.563 339.518 980.414 340.32 981.016 341.322C981.617 342.375 981.918 343.427 981.918 344.579C981.918 346.133 981.367 347.436 980.164 348.488H980.214Z" fill="#859C9F"/>
<path d="M994.394 317.916C993.593 317.916 992.941 318.217 992.39 318.718C991.839 319.219 991.538 319.87 991.538 320.622C991.538 321.374 991.839 322.025 992.39 322.526C992.941 323.077 993.593 323.328 994.394 323.328C995.196 323.328 995.848 323.077 996.399 322.526C996.95 322.025 997.251 321.374 997.251 320.622C997.251 319.87 996.95 319.219 996.399 318.718C995.848 318.217 995.196 317.916 994.394 317.916Z" fill="#859C9F"/>
<path d="M996.399 327.684H992.391V353.791H996.399V327.684Z" fill="#859C9F"/>
<path d="M1019.9 328.895C1018.85 328.244 1017.85 327.843 1016.69 327.693C1015.59 327.442 1014.64 327.342 1013.79 327.342C1012.48 327.342 1011.18 327.542 1009.78 327.893C1008.43 328.244 1007.17 328.895 1006.02 329.747C1004.87 330.649 1003.97 331.852 1003.26 333.455L1007.12 334.808C1007.52 333.856 1008.32 333.004 1009.43 332.152C1010.53 331.301 1011.98 330.9 1013.94 330.9C1015.89 330.9 1017.19 331.351 1018.1 332.303C1019 333.255 1019.45 334.508 1019.45 336.161V336.312C1019.45 336.963 1019.2 337.414 1018.75 337.665C1018.35 337.965 1017.6 338.116 1016.59 338.216C1015.59 338.316 1014.29 338.517 1012.68 338.667C1011.48 338.817 1010.23 339.018 1009.08 339.318C1007.87 339.569 1006.77 339.97 1005.77 340.471C1004.77 341.022 1003.97 341.724 1003.36 342.676C1002.81 343.628 1002.46 344.831 1002.46 346.334C1002.46 348.088 1002.86 349.491 1003.66 350.694C1004.47 351.896 1005.52 352.798 1006.92 353.45C1008.22 354.051 1009.78 354.402 1011.43 354.402C1012.94 354.402 1014.24 354.151 1015.29 353.75C1016.39 353.299 1017.19 352.698 1017.9 352.047C1018.5 351.395 1019 350.794 1019.25 350.243H1019.45V353.8H1023.51V336.612C1023.51 334.558 1023.16 332.854 1022.46 331.651C1021.8 330.399 1020.9 329.497 1019.9 328.895ZM1019.5 344.38C1019.5 345.432 1019.2 346.484 1018.65 347.486C1018.1 348.489 1017.24 349.29 1016.14 349.892C1015.04 350.493 1013.69 350.844 1012.08 350.844C1010.48 350.844 1009.18 350.493 1008.07 349.792C1007.02 349.09 1006.52 348.038 1006.52 346.685C1006.52 345.632 1006.82 344.881 1007.37 344.229C1007.92 343.628 1008.63 343.177 1009.53 342.876C1010.48 342.576 1011.38 342.375 1012.48 342.225C1012.89 342.225 1013.49 342.125 1014.19 342.024C1014.89 341.924 1015.59 341.824 1016.34 341.674C1017.09 341.573 1017.75 341.423 1018.3 341.273C1018.9 341.122 1019.25 340.922 1019.4 340.721V344.43L1019.5 344.38Z" fill="#859C9F"/>
<path d="M1047.37 328.441C1046.06 327.739 1044.46 327.389 1042.71 327.389C1040.7 327.389 1039.1 327.79 1037.85 328.591C1036.64 329.443 1035.69 330.445 1035.09 331.798H1034.74V327.689H1030.88V353.797H1034.89V338.112C1034.89 336.609 1035.24 335.306 1035.79 334.254C1036.34 333.202 1037.14 332.4 1038.2 331.849C1039.2 331.297 1040.35 330.997 1041.6 330.997C1043.46 330.997 1044.91 331.598 1046.01 332.751C1047.12 333.903 1047.62 335.507 1047.62 337.561V353.847H1051.68V337.261C1051.68 335.056 1051.33 333.202 1050.57 331.748C1049.82 330.295 1048.77 329.243 1047.47 328.491L1047.37 328.441Z" fill="#859C9F"/>
<path d="M1065.5 332.144C1066.66 331.342 1068.06 330.941 1069.56 330.941C1071.37 330.941 1072.77 331.392 1073.82 332.344C1074.87 333.297 1075.58 334.299 1075.83 335.501H1079.88C1079.63 333.848 1079.08 332.395 1078.13 331.192C1077.18 329.989 1075.98 329.037 1074.47 328.336C1073.02 327.634 1071.32 327.283 1069.51 327.283C1067.16 327.283 1065.1 327.834 1063.3 329.037C1061.49 330.19 1060.14 331.793 1059.19 333.798C1058.19 335.852 1057.69 338.207 1057.69 340.863C1057.69 343.519 1058.19 345.774 1059.14 347.779C1060.09 349.833 1061.44 351.437 1063.2 352.589C1065 353.692 1067.11 354.343 1069.51 354.343C1071.47 354.343 1073.17 353.992 1074.62 353.291C1076.08 352.539 1077.23 351.537 1078.13 350.334C1079.03 349.132 1079.58 347.728 1079.83 346.175H1075.78C1075.53 347.127 1075.12 347.929 1074.52 348.63C1073.97 349.332 1073.22 349.833 1072.37 350.234C1071.52 350.585 1070.56 350.785 1069.51 350.785C1067.96 350.785 1066.56 350.384 1065.4 349.532C1064.25 348.681 1063.3 347.528 1062.7 346.025C1062.05 344.521 1061.69 342.818 1061.69 340.813C1061.69 338.809 1062.05 337.105 1062.7 335.602C1063.35 334.148 1064.3 333.046 1065.45 332.194L1065.5 332.144Z" fill="#859C9F"/>
<path d="M1102.59 328.444C1101.23 327.742 1099.68 327.391 1097.88 327.391C1095.82 327.391 1094.17 327.792 1092.97 328.594C1091.71 329.396 1090.81 330.448 1090.21 331.801H1089.81V318.973H1085.8V353.8H1089.81V338.115C1089.81 336.612 1090.16 335.309 1090.71 334.257C1091.31 333.204 1092.16 332.402 1093.22 331.851C1094.27 331.3 1095.42 330.999 1096.72 330.999C1098.63 330.999 1100.08 331.551 1101.18 332.753C1102.29 333.856 1102.84 335.509 1102.84 337.564V353.85H1106.9V337.263C1106.9 335.008 1106.55 333.204 1105.79 331.701C1105.04 330.248 1103.99 329.195 1102.64 328.494L1102.59 328.444Z" fill="#859C9F"/>
<path d="M1118.22 318.718C1117.67 318.217 1117.02 317.916 1116.22 317.916C1115.42 317.916 1114.76 318.217 1114.21 318.718C1113.66 319.219 1113.36 319.87 1113.36 320.622C1113.36 321.374 1113.66 322.025 1114.21 322.526C1114.76 323.077 1115.42 323.328 1116.22 323.328C1117.02 323.328 1117.67 323.077 1118.22 322.526C1118.77 322.025 1119.07 321.374 1119.07 320.622C1119.07 319.87 1118.77 319.219 1118.22 318.718Z" fill="#859C9F"/>
<path d="M1118.22 327.684H1114.21V353.791H1118.22V327.684Z" fill="#859C9F"/>
<defs>
<linearGradient id="paint0_linear_2347_62807" x1="76.2929" y1="152.087" x2="461.567" y2="388.44" gradientUnits="userSpaceOnUse">
<stop offset="0.02" stop-color="#15E39B"/>
<stop offset="0.17" stop-color="#14D192"/>
<stop offset="0.48" stop-color="#11A37C"/>
<stop offset="0.91" stop-color="#0D5A5A"/>
<stop offset="0.96" stop-color="#0D5156"/>
</linearGradient>
</defs>
</svg>
