<svg width="487" height="487" viewBox="0 0 487 487" fill="none" xmlns="http://www.w3.org/2000/svg">
  <path
    d="M231.014 33.7475L78.4707 106.9C70.8006 110.563 65.2484 117.546 63.3022 125.846L25.6959 290.066C23.807 298.366 25.8104 307.123 31.1337 313.763L136.626 445.528C141.949 452.168 149.963 456.003 158.434 456.003H327.806C336.277 456.003 344.291 452.168 349.614 445.528L455.106 313.763C460.43 307.123 462.433 298.366 460.544 290.066L422.938 125.846C421.049 117.546 415.439 110.563 407.769 106.9L255.169 33.7475C247.556 30.0842 238.627 30.0842 231.014 33.7475Z"
    fill="url(#paint0_linear_2347_61312)" />
  <path
    d="M231.014 70.5502L107.377 129.85C99.7068 133.514 94.1546 140.497 92.2084 148.797L61.6998 281.878C59.8109 290.178 61.8143 298.936 67.1376 305.575L152.653 412.384C157.977 419.024 165.99 422.859 174.462 422.859H311.722C320.193 422.859 328.207 419.024 333.53 412.384L419.046 305.575C424.369 298.936 426.372 290.178 424.483 281.878L393.975 148.797C392.086 140.497 386.476 133.514 378.806 129.85L255.169 70.5502C247.556 66.8869 238.627 66.8869 231.014 70.5502Z"
    fill="white" />
  <path
    d="M231.013 92.8764L124.891 143.82C117.221 147.483 111.669 154.466 109.723 162.766L83.5641 277.016C81.6752 285.315 83.6786 294.073 89.0018 300.713L162.383 392.353C167.706 398.993 175.72 402.828 184.191 402.828H302.047C310.519 402.828 318.532 398.993 323.855 392.353L397.236 300.713C402.56 294.073 404.563 285.315 402.674 277.016L376.516 162.766C374.627 154.466 369.017 147.483 361.347 143.82L255.225 92.8764C247.612 89.2131 238.683 89.2131 231.07 92.8764H231.013Z"
    fill="#00493C" />
  <path
    d="M83.4521 277.306L98.6206 211.137C203.54 212.167 204.113 318.69 310.063 318.69C354.252 318.69 380.124 300.087 402.848 278.393C404.451 286.922 402.333 295.794 396.838 302.605L324.545 392.929C318.821 400.084 310.178 404.205 301.019 404.205H185.052C175.894 404.205 167.251 400.027 161.527 392.929L89.2333 302.605C83.5094 295.45 81.3915 286.178 83.4521 277.248V277.306Z"
    fill="#7EEBB9" />
  <path
    d="M83.7943 277.472L90.2051 249.596C100.05 247.535 111.04 246.219 123.805 246.219C234.563 246.219 234.563 353.657 345.264 353.657C349.042 353.657 352.705 353.543 356.254 353.257L324.543 392.866C318.82 399.964 310.176 404.142 301.075 404.142H185.28C176.122 404.142 167.478 400.021 161.812 392.866L89.6327 302.714C83.9088 295.616 81.7909 286.286 83.8515 277.414L83.7943 277.472Z"
    fill="#219384" />
  <path
    d="M83.4505 277.296L90.8344 245.127C104.858 242.265 120.942 241.121 140.347 242.552C251.677 250.966 250.99 344.724 347.21 364.643L324.6 392.92C318.876 400.075 310.233 404.196 301.075 404.196H185.108C175.95 404.196 167.306 400.017 161.582 392.92L89.2889 302.596C83.565 295.441 81.4472 286.168 83.5078 277.239L83.4505 277.296Z"
    fill="#008575" />
  <path
    d="M83.4521 277.302L87.2299 260.874C97.3041 259.844 108.351 259.615 120.887 260.531C233.935 269.059 231.531 365.508 332.158 383.481L324.545 392.983C318.821 400.138 310.178 404.259 301.019 404.259H185.052C175.894 404.259 167.251 400.081 161.527 392.983L89.2333 302.659C83.5094 295.504 81.3915 286.231 83.4521 277.302Z"
    fill="#006557" />
  <path
    d="M215.902 324.122C207.145 324.122 197.758 323.664 187.855 322.691C170.225 272.034 170.111 233.856 187.512 209.243C207.202 181.424 245.896 175.586 274.859 175.586C287.051 175.586 297.125 176.616 302.735 177.36C308.459 192.243 329.008 252.172 303.593 290.008C288.368 312.674 258.889 324.122 215.902 324.122Z"
    fill="#15E39B" />
  <path
    d="M274.86 182.567C284.075 182.567 292.032 183.197 297.584 183.769C304.338 202.544 319.449 253.716 297.698 286.056C283.846 306.605 256.314 317.023 215.846 317.023C208.691 317.023 201.021 316.679 193.007 316.05C177.61 269.8 177.667 235.228 193.236 213.248C211.152 187.891 247.499 182.567 274.802 182.567M274.802 168.486C222.142 168.486 131.761 187.547 182.304 328.184L181.559 329.1C181.96 329.1 182.246 329.1 182.647 329.215C182.761 329.558 182.876 329.902 182.99 330.245L183.734 329.329C195.354 330.588 206.058 331.161 215.846 331.161C368.904 331.161 315.5 189.894 308.116 171.978C308.116 171.978 308.116 171.863 307.715 171.005L306.685 170.833C302.106 170.146 290.028 168.544 274.802 168.544V168.486Z"
    fill="white" />
  <path
    d="M145.156 381.537L134.051 372.836L221.57 267.63L215.503 236.778L229.355 234.088L236.624 271.294L145.156 381.537Z"
    fill="white" />
  <path d="M231.646 275.987L226.551 262.936L273.946 244.562L279.04 257.67L231.646 275.987Z" fill="white" />
  <defs>
    <linearGradient id="paint0_linear_2347_61312" x1="35.7701" y1="132.085" x2="494.831" y2="413.703"
      gradientUnits="userSpaceOnUse">
      <stop offset="0.02" stop-color="#15E39B" />
      <stop offset="0.17" stop-color="#14D192" />
      <stop offset="0.48" stop-color="#11A37C" />
      <stop offset="0.91" stop-color="#0D5A5A" />
      <stop offset="0.96" stop-color="#0D5156" />
    </linearGradient>
  </defs>
</svg>
